<?xml version="1.0" standalone="no"?>
<!DOCTYPE svg PUBLIC "-//W3C//DTD SVG 20010904//EN"
 "http://www.w3.org/TR/2001/REC-SVG-20010904/DTD/svg10.dtd">
<svg version="1.0" xmlns="http://www.w3.org/2000/svg"
 width="512.000000pt" height="512.000000pt" viewBox="0 0 512.000000 512.000000"
 preserveAspectRatio="xMidYMid meet">
<metadata>
Created by potrace 1.11, written by Peter Selinger 2001-2013
</metadata>
<g transform="translate(0.000000,512.000000) scale(0.100000,-0.100000)"
fill="#000000" stroke="none">
<path d="M2527 4644 c-1 -1 -48 -4 -103 -8 -90 -5 -160 -13 -259 -32 -448 -83
-900 -348 -1196 -703 -229 -275 -396 -615 -452 -921 -3 -14 -8 -36 -11 -50 -6
-28 -12 -69 -22 -156 -15 -119 -7 -484 11 -537 2 -7 6 -28 9 -47 14 -91 54
-245 86 -330 12 -30 23 -59 24 -65 16 -54 148 -322 165 -335 3 -3 12 -17 20
-32 63 -121 310 -393 474 -522 306 -238 696 -398 1056 -434 145 -14 530 -5
560 13 4 1 26 6 51 9 25 3 60 10 78 15 18 5 33 10 35 9 8 -1 108 28 197 58
210 72 458 210 635 354 96 79 252 238 326 335 228 295 363 610 424 985 22 139
23 470 1 590 -3 14 -7 41 -10 60 -29 185 -99 396 -192 584 -247 495 -688 878
-1214 1053 -99 33 -262 72 -330 79 -30 3 -58 8 -61 9 -7 5 -298 23 -302 19z
m158 -238 c589 -39 1109 -343 1438 -842 140 -213 233 -457 282 -739 10 -60 19
-192 18 -290 -2 -610 -311 -1181 -826 -1529 -194 -131 -465 -244 -672 -281
-16 -2 -41 -7 -55 -10 -130 -27 -467 -27 -611 0 -233 45 -341 81 -534 178
-562 284 -947 840 -1012 1465 -13 126 -7 383 11 478 3 12 7 39 10 60 43 268
204 608 402 845 264 317 664 558 1054 634 100 19 364 45 395 39 6 -2 51 -5
100 -8z"/>
<path d="M1949 3802 c-18 -12 -19 -31 -19 -336 0 -295 2 -324 18 -339 15 -13
56 -15 296 -15 l278 0 87 -99 c47 -55 111 -128 141 -163 30 -35 60 -68 65 -74
47 -52 135 -156 148 -176 13 -21 15 -53 13 -180 -2 -149 -3 -157 -31 -214 -79
-158 -236 -251 -404 -240 -159 10 -303 120 -362 277 -12 31 -26 60 -32 64 -18
11 -199 4 -214 -9 -32 -27 9 -170 82 -283 70 -110 208 -220 329 -263 113 -40
273 -49 381 -22 254 64 442 266 500 535 l7 30 63 -70 c73 -80 72 -74 19 -198
-126 -296 -441 -497 -764 -488 -316 10 -593 195 -725 485 -18 39 -38 94 -45
121 -6 28 -14 59 -17 70 -3 11 -7 70 -9 132 -3 82 -1 114 9 120 6 4 157 8 335
9 300 1 324 0 332 -17 6 -10 10 -71 10 -137 0 -97 3 -122 16 -133 22 -18 189
-20 215 -1 18 12 19 27 19 262 0 213 -2 251 -16 264 -14 14 -80 16 -579 16
-514 0 -565 -1 -580 -17 -15 -15 -17 -42 -12 -262 3 -135 8 -259 11 -276 18
-84 38 -156 58 -205 100 -255 298 -466 543 -581 82 -38 228 -82 315 -94 52 -7
231 -7 275 0 307 51 536 186 719 425 95 122 183 331 199 468 4 40 1 47 -42 95
-26 29 -116 130 -199 225 l-152 174 0 553 c0 501 -2 554 -16 566 -24 20 -1237
21 -1265 1z m1021 -252 c4 -6 7 -138 7 -293 l1 -281 -37 40 c-20 21 -56 63
-81 93 -25 29 -58 67 -75 85 -16 18 -50 57 -74 86 -58 68 -70 80 -84 81 -7 1
-105 2 -219 3 -134 1 -211 5 -218 12 -7 7 -10 44 -8 95 3 77 5 84 26 89 13 3
188 4 389 3 267 -1 368 -4 373 -13z"/>
</g>
</svg>
